# xmcd
#
# Track frame offsets:
# 150
# 14366
# 34652
# 48273
# 66220
# 80654
# 95402
# 110851
# 125073
# 144534
# 160036
# 172833
# 189959
# 209156
# 226754
# 252189
#
# Disc length: 4440 seconds
#
# Revision: 1
# Processed by: cddbd v1.5.1PL0 Copyright (c) Steve Scherf et al.
# Submitted via: CedeCatalogueitor 2.6.0.6 http://personales.ya.com/cdcatalogueitor
#
DISCID=d9115610
DTITLE=Ella Baila Sola - Grandes Éxitos
DYEAR=2005
DGENRE=
TTITLE0=Amores De Barra
TTITLE1=Mujer Florero
TTITLE2=Mejor Sin Ti
TTITLE3=Lo Echamos A Suertes
TTITLE4=Cuando Los Sapos Bailen Flamenco
TTITLE5=Despídete
TTITLE6=Ella Baila Sola
TTITLE7=Cómo Repartimo Los Amigos
TTITLE8=Y Quisiera
TTITLE9=No Lo Vuelvas A Hacer
TTITLE10=Por Tí
TTITLE11=Que Se Me Va De Las Manos
TTITLE12=Suelo De Canicas
TTITLE13=Sin Confesarlo Todo
TTITLE14=Claro Que Falta Hablar
TTITLE15=--DATOS---
EXTD=
EXTT0=
EXTT1=
EXTT2=
EXTT3=
EXTT4=
EXTT5=
EXTT6=
EXTT7=
EXTT8=
EXTT9=
EXTT10=
EXTT11=
EXTT12=
EXTT13=
EXTT14=
EXTT15=
PLAYORDER=
